<svg width="2048" height="512" viewBox="0 0 2048 512" fill="none" xmlns="http://www.w3.org/2000/svg">
  <defs>
    <linearGradient id="bg" x1="0" y1="0" x2="2048" y2="0" gradientUnits="userSpaceOnUse">
      <stop offset="0" stop-color="#050913"/>
      <stop offset="0.58" stop-color="#060D19"/>
      <stop offset="1" stop-color="#07101C"/>
    </linearGradient>
    <radialGradient id="leftGlow" cx="0" cy="0" r="1" gradientUnits="userSpaceOnUse" gradientTransform="translate(300 120) rotate(18) scale(640 260)">
      <stop offset="0" stop-color="#2D6BFF" stop-opacity="0.15"/>
      <stop offset="1" stop-color="#2D6BFF" stop-opacity="0"/>
    </radialGradient>
    <linearGradient id="logoStroke" x1="0" y1="0" x2="1000" y2="1000" gradientUnits="userSpaceOnUse">
      <stop offset="0" stop-color="#39B8FF"/>
      <stop offset="1" stop-color="#1F8FFF"/>
    </linearGradient>
  </defs>

  <rect width="2048" height="512" fill="url(#bg)"/>
  <rect width="2048" height="512" fill="url(#leftGlow)"/>

  <g opacity="0.88">
    <text x="56" y="178" fill="#E9EEF5" font-family="Manrope, Plus Jakarta Sans, Avenir Next, Segoe UI, sans-serif" font-size="112" font-weight="700" letter-spacing="3.5">QINGKUAI</text>
    <text x="56" y="270" fill="#CFD6E2" font-family="General Sans, Manrope, Plus Jakarta Sans, Avenir Next, Segoe UI, sans-serif" font-size="60" font-weight="600">Make web development simpler</text>
  </g>

  <rect x="56" y="312" width="520" height="1" fill="#A8B8D2" fill-opacity="0.36"/>

  <g transform="translate(1638 -58) scale(0.62)">
    <path
      d="M337.983918,64.2267716 L89.1614707,604.273535 C114.426749,604.273535 159.462985,607.411873 200.989985,634.626394 L506.325364,195.411911 C533.24262,153.94381 553.960833,78.2124247 506.700729,32.5335712 C459.442005,-13.1218048 359.738525,5.48616347 337.983918,64.2267716 Z M931.360241,645.607655 L391.708007,894.612012 C391.708007,869.328263 388.571961,824.259102 361.377322,782.701742 L800.270938,477.143138 C841.708745,450.206204 917.384805,429.472844 963.030288,476.767499 C1008.65231,524.060773 990.057936,623.837144 931.360241,645.607655 Z M554.645322,270.597791 L253.710429,669.996184 C253.710429,669.996184 272.573736,684.183653 292.975926,703.382693 C313.378115,722.581732 323.620095,739.035005 323.620095,739.035005 C550.661958,563.246092 682.593712,456.268603 719.415359,418.102537 C774.647828,360.853438 811.578722,297.237664 750.155491,237.890785 C702.775325,182.883093 612.325944,200.132262 554.645322,270.597791 Z M327.36874,937.6118 C359.599066,904.225469 325.923861,825.570449 250.289202,752.483731 C174.701464,679.445349 94.9722904,648.468911 62.766805,681.855242 C-6.26860688,753.399352 -4.67882588,874.769541 66.2113305,943.276773 C137.101487,1011.78262 258.358169,1009.13105 327.393581,937.6118 L327.36874,937.6118 Z"
      fill="none"
      stroke="url(#logoStroke)"
      stroke-width="8"
      stroke-linecap="round"
      stroke-linejoin="round"
    />
    <path
      d="M337.983918,64.2267716 L89.1614707,604.273535 C114.426749,604.273535 159.462985,607.411873 200.989985,634.626394 L506.325364,195.411911 C533.24262,153.94381 553.960833,78.2124247 506.700729,32.5335712 C459.442005,-13.1218048 359.738525,5.48616347 337.983918,64.2267716 Z M931.360241,645.607655 L391.708007,894.612012 C391.708007,869.328263 388.571961,824.259102 361.377322,782.701742 L800.270938,477.143138 C841.708745,450.206204 917.384805,429.472844 963.030288,476.767499 C1008.65231,524.060773 990.057936,623.837144 931.360241,645.607655 Z M554.645322,270.597791 L253.710429,669.996184 C253.710429,669.996184 272.573736,684.183653 292.975926,703.382693 C313.378115,722.581732 323.620095,739.035005 323.620095,739.035005 C550.661958,563.246092 682.593712,456.268603 719.415359,418.102537 C774.647828,360.853438 811.578722,297.237664 750.155491,237.890785 C702.775325,182.883093 612.325944,200.132262 554.645322,270.597791 Z M327.36874,937.6118 C359.599066,904.225469 325.923861,825.570449 250.289202,752.483731 C174.701464,679.445349 94.9722904,648.468911 62.766805,681.855242 C-6.26860688,753.399352 -4.67882588,874.769541 66.2113305,943.276773 C137.101487,1011.78262 258.358169,1009.13105 327.393581,937.6118 L327.36874,937.6118 Z"
      fill="none"
      stroke="#6AC8FF"
      stroke-opacity="0.12"
      stroke-width="18"
      stroke-linecap="round"
      stroke-linejoin="round"
    />
  </g>
</svg>
